<svg version="1" xmlns="http://www.w3.org/2000/svg" width="1466.667" height="1466.667" viewBox="0 0 1100.000000 1100.000000"><path d="M0 550v550h1100V0H0v550zm174-433c20 10.5 65.8 35.8 140.5 77.5 64.9 36.2 119.6 66.8 154.5 86.3 16.2 9.1 37.6 21 47.5 26.5 36.7 20.5 43.1 24 94.5 52.7 70.9 39.6 151.6 84.4 191 106.3C902.6 522 982.4 566.5 997 575.2c4.9 2.9 7.5 5 7.5 6.2 0 1.3-3.3 3.5-11.5 7.8-6.3 3.3-17.3 9-24.5 12.7-16.3 8.6-56.3 29.4-76 39.6-8.2 4.3-25.6 13.3-38.5 20-12.9 6.7-31.6 16.4-41.5 21.5-9.9 5.2-30.4 15.8-45.5 23.8-24.4 12.7-105.6 53.4-137 68.5-6.3 3-25.4 12.3-42.5 20.7-17 8.4-36.4 17.8-43 21-12.2 5.8-33.5 16.2-77 37.5-97.1 47.4-147.9 71.4-149.1 70.2-.8-.8 35.4-26.7 81.9-58.6 13-9 23.9-16.7 24.2-17.1.2-.3-6.8-8.3-15.6-17.6-56-59-75.1-83.5-106.4-136.7-25.6-43.6-36.5-81.8-36.5-128.2 0-24.1 4.3-56.1 9.6-72 6-17.9 26.8-59.4 40-79.7 13.7-21.1 27.6-37.9 52.4-63.2 13.9-14.2 38.3-35.4 46.8-40.7 1.2-.8 2.2-1.9 2.2-2.6 0-.6-3.9-4.3-8.7-8.1-7.6-6-63.4-47.7-94-70.2-79.8-58.7-156.6-116.1-160.5-119.8-1.6-1.4-2.8-3-2.8-3.5 0-1.5 4.2.3 23 10.3z"/><path d="M423.4 313.8c-.5.4-2.2 3.2-3.8 6.2-1.6 3-4.1 7.3-5.6 9.5-5.1 7.5-14.9 25.2-23.5 42.5-12.2 24.7-25.1 58.4-26.2 68.6-.8 7.3 2.8 18.8 11.9 38.4 23.1 49.5 23.7 119.4 1.4 163.7-2.4 4.9-7.9 13.5-12 19.1-4.2 5.6-7.6 10.8-7.6 11.6 0 2.3 17.4 53.1 23.3 68.1 12.5 31.7 34.9 78.8 43.5 91.4 2 3 4.9 6.3 6.4 7.4l2.7 2 3.8-3c2.1-1.6 13.5-9.7 25.3-17.9 21.4-15 24.9-17.4 58-40.1 27.4-18.7 58.6-40.3 81.5-56.3 11.6-8.1 36.8-25.6 56-39 32.3-22.5 84.7-59.1 122.6-85.6 8.6-6 15.6-11.4 15.6-11.9 0-.6-14.2-11.5-31.6-24.4-17.4-12.8-38.3-28.4-46.6-34.6-8.2-6.1-35.9-26.7-61.5-45.7-25.6-18.9-64.7-48-87-64.7-22.3-16.6-52.8-39.2-67.8-50.4-15.1-11.1-34.9-25.8-44-32.5-17.3-12.8-29.7-21.4-32.3-22.4-.9-.3-2-.3-2.5 0zm7.3 82.6c31.2 34.3 49.9 64.5 61.7 99.7 8.3 24.4 11.4 43.1 12.3 72.4.9 31.6-1.1 41.5-14.1 69.5-11.5 24.6-26.2 47.7-47.1 73.7-12.4 15.6-23.5 26.3-27 26.3-2.3 0-2.5-.3-1.9-2.8 1-4 6.4-17 12.9-30.7 19.8-41.8 28.1-74.7 30.5-120.8 3.3-64.2-11.6-131.6-43.1-195.2-4.3-8.8-7.9-16.5-7.9-17 .1-1.1 1.9.9 23.7 24.9z"/></svg>